# xmcd CD database file
#
# Track frame offsets:
#	150
#	19449
#	35490
#	48353
#	62697
#	77212
#	98045
#	111299
#
# Disc length: 1611 seconds
#
# Revision: 0
# Processed by: cddbd v1.5.2PL0 Copyright (c) Steve Scherf et al.
# Submitted via: CDex 1.70beta2
#
DISCID=65064908
DTITLE=Hellhound Brown - What To Do?
DYEAR=2009
DGENRE=Blues
TTITLE0=Bad Luck
TTITLE1=Blind Man
TTITLE2=What To Do
TTITLE3=See Through Love
TTITLE4=Watch That Devil
TTITLE5=Rag Doll Bad
TTITLE6=Satisfaction
TTITLE7=Chances
EXTD=YEAR: 2009
EXTT0=
EXTT1=
EXTT2=
EXTT3=
EXTT4=
EXTT5=
EXTT6=
EXTT7=
PLAYORDER=
